<svg width="15px" height="18px" viewBox="0 0 15 18" version="1.1"
  xmlns:xlink="http://www.w3.org/1999/xlink"
  xmlns="http://www.w3.org/2000/svg">
  <g id="Text" fill-opacity="1">
    <path d="M15 0L15 0L15 18L0 18L0 0L15 0Z" id="Text" fill="none" stroke="none" />
    <path
      d="M3.75 16.0714L11.25 16.0714C12.2855 16.0714 13.125 15.208 13.125 14.1429L13.125 8.02672C13.1248 7.5147 12.9269 7.02399 12.5748 6.66239L8.52375 2.493C8.17225 2.13169 7.69568 1.92868 7.19875 1.92857L3.75 1.92857C2.71447 1.92857 1.875 2.79202 1.875 3.85714L1.875 14.1429C1.875 15.208 2.71447 16.0714 3.75 16.0714M15 8.02672C15.0003 7.00424 14.6053 6.02271 13.9018 5.29904L9.85 1.13143C9.1465 0.406921 8.19178 -0.000123228 7.19625 0L3.75 0C1.67893 0 0 1.7269 0 3.85714L0 14.1429C2.98023e-07 16.2731 1.67893 18 3.75 18L11.25 18C13.3211 18 15 16.2731 15 14.1429L15 8.02672ZM3.75 9.32143C3.75 8.78887 4.16973 8.35714 4.6875 8.35714L10.3125 8.35714C10.8303 8.35714 11.25 8.78887 11.25 9.32143C11.25 9.85399 10.8303 10.2857 10.3125 10.2857L4.6875 10.2857C4.16973 10.2857 3.75 9.85399 3.75 9.32143M4.6875 12.2143C4.35256 12.2143 4.04307 12.3981 3.8756 12.6964C3.70813 12.9948 3.70813 13.3624 3.8756 13.6607C4.04307 13.9591 4.35256 14.1429 4.6875 14.1429L7.8125 14.1429C8.14744 14.1429 8.45693 13.9591 8.6244 13.6607C8.79187 13.3624 8.79187 12.9948 8.6244 12.6964C8.45693 12.3981 8.14744 12.2143 7.8125 12.2143L4.6875 12.2143Z"
      id="Shape" fill="#E5DFD5" fill-rule="evenodd" stroke="none" />
  </g>
</svg>