<?xml version="1.0" encoding="utf-8"?>
<svg width="12" height="8" viewBox="0 0 12 8" fill="none" stroke="none" version="1.1" xmlns:xlink="http://www.w3.org/1999/xlink" xmlns="http://www.w3.org/2000/svg">
  <g id="Arrow" transform="translate(0 0)">
    <rect id="Rectangle" width="12" height="8" style="mix-blend-mode:normal;" transform="translate(0 0)" />
    <path id="Path" d="M3.10928 8.76192C3.10928 8.76192 3.10928 0.952386 3.10928 0.952386C3.10928 0.682544 3.1892 0.456512 3.34903 0.274291C3.50887 0.0920672 3.70643 0.000639439 3.94173 3.33786e-06C4.17706 -0.000631809 4.37489 0.0907969 4.53526 0.274291C4.69566 0.457782 4.77529 0.683815 4.77418 0.952386C4.77418 0.952386 4.77418 8.76192 4.77418 8.76192C4.77418 8.76192 6.60566 7 6.60566 7C6.75827 6.8254 6.95253 6.73811 7.18839 6.73811C7.42426 6.73811 7.61849 6.8254 7.77111 7C7.92373 7.1746 8 7.39683 8 7.66667C8 7.93651 7.92373 8.15874 7.77111 8.33334C7.77111 8.33334 4.52444 11.7143 4.52444 11.7143C4.35797 11.9048 4.16372 12 3.94173 12C3.71975 12 3.52551 11.9048 3.35902 11.7143C3.35902 11.7143 0.228926 8.33334 0.228926 8.33334C0.076309 8.15874 0 7.93652 0 7.66668C0 7.39683 0.076309 7.1746 0.228926 7C0.381543 6.8254 0.575782 6.73811 0.811648 6.73811C1.04751 6.73811 1.24175 6.8254 1.39437 7C1.39437 7 3.10928 8.76192 3.10928 8.76192Z" style="fill:#ADA9A1;fill-rule:evenodd;mix-blend-mode:normal;" transform="matrix(0 1 -1 0 12 0)" />
  </g>
</svg>