<?xml version="1.0" encoding="utf-8"?>
<svg width="15px" height="18px" viewBox="0 0 15 18" version="1.1" xmlns:xlink="http://www.w3.org/1999/xlink" xmlns="http://www.w3.org/2000/svg">
  <defs>
    <path d="M2.99805 6.72744e-06L8.5 1.90735e-05L15 6.00002L15 15.002Q15 15.1493 14.9856 15.2958Q14.9711 15.4424 14.9424 15.5869Q14.9137 15.7313 14.8709 15.8723Q14.8282 16.0132 14.7718 16.1493Q14.7154 16.2854 14.646 16.4152Q14.5766 16.5451 14.4947 16.6676Q14.4129 16.7901 14.3195 16.9039Q14.226 17.0178 14.1219 17.1219Q14.0177 17.2261 13.9039 17.3195Q13.79 17.4129 13.6676 17.4948Q13.5451 17.5766 13.4152 17.646Q13.2853 17.7155 13.1493 17.7718Q13.0132 17.8282 12.8722 17.8709Q12.7313 17.9137 12.5868 17.9424Q12.4424 17.9712 12.2958 17.9856Q12.1492 18 12.002 18L2.99804 18Q2.85076 18 2.70418 17.9856Q2.55761 17.9711 2.41315 17.9424Q2.2687 17.9137 2.12776 17.8709Q1.98681 17.8282 1.85074 17.7718Q1.71467 17.7154 1.58477 17.646Q1.45488 17.5766 1.33242 17.4947Q1.20996 17.4129 1.0961 17.3195Q0.982251 17.226 0.878106 17.1219Q0.77396 17.0178 0.680524 16.9039Q0.587088 16.79 0.505261 16.6676Q0.423434 16.5451 0.354005 16.4152Q0.284575 16.2853 0.228212 16.1493Q0.171849 16.0132 0.129095 15.8722Q0.0863402 15.7313 0.0576065 15.5869Q0.0288728 15.4424 0.0144364 15.2958Q0 15.1492 0 15.002L0 2.99805Q0 2.85077 0.0144365 2.70419Q0.0288729 2.55762 0.0576068 2.41316Q0.0863407 2.26871 0.129095 2.12777Q0.17185 1.98682 0.228213 1.85075Q0.284577 1.71468 0.354007 1.58478Q0.423436 1.45489 0.505263 1.33243Q0.587091 1.20996 0.680527 1.09611Q0.773964 0.982258 0.87811 0.878112Q0.982256 0.773966 1.09611 0.68053Q1.20996 0.587093 1.33242 0.505266Q1.45489 0.423439 1.58478 0.35401Q1.71467 0.284581 1.85075 0.228217Q1.98682 0.171854 2.12776 0.1291Q2.26871 0.0863458 2.41316 0.0576122Q2.55762 0.0288786 2.70419 0.0144425Q2.85077 6.39694e-06 2.99805 6.72744e-06L2.99805 6.72744e-06Z" id="path_1" />
    <path d="M7.5 1.61429e-06L8.49999 0L15 6L15 8L9.49902 8Q9.40082 8 9.30309 7.99038Q9.20535 7.98075 9.10903 7.96159Q9.01272 7.94243 8.91874 7.91393Q8.82476 7.88542 8.73403 7.84784Q8.6433 7.81026 8.55669 7.76396Q8.47008 7.71767 8.38842 7.66311Q8.30677 7.60855 8.23086 7.54625Q8.15494 7.48395 8.0855 7.4145Q8.01606 7.34506 7.95376 7.26915Q7.89146 7.19323 7.8369 7.11158Q7.78234 7.02992 7.73604 6.94331Q7.68975 6.8567 7.65217 6.76597Q7.61458 6.67524 7.58608 6.58127Q7.55757 6.48729 7.53841 6.39097Q7.51925 6.29465 7.50963 6.19692Q7.5 6.09919 7.5 6.00098L7.5 1.61429e-06Z" id="path_2" />
    <clipPath id="clip_1">
      <use xlink:href="#path_1" />
    </clipPath>
    <clipPath id="clip_2">
      <use xlink:href="#path_2" />
    </clipPath>
  </defs>
  <g id="File" fill-opacity="1">
    <path d="M-134 -1664L-134 -1664L-134 -1646L-149 -1646L-149 -1664L-134 -1664Z" id="File" fill="none" stroke="none" />
    <g id="Rectangle">
      <g clip-path="url(#clip_1)">
        <use xlink:href="#path_1" fill="none" stroke="#E5DFD5" stroke-width="4" />
      </g>
    </g>
    <g id="Rectangle">
      <g clip-path="url(#clip_2)">
        <use xlink:href="#path_2" fill="none" stroke="#E5DFD5" stroke-width="4" />
      </g>
    </g>
  </g>
</svg>