<svg width="14px" height="18px" viewBox="0 0 14 18" version="1.1" xmlns:xlink="http://www.w3.org/1999/xlink"
  xmlns="http://www.w3.org/2000/svg">
  <defs>
    <path
      d="M2.99805 0L8 0L14 6L14 15.002Q14 15.1492 13.9856 15.2958Q13.9711 15.4424 13.9424 15.5868Q13.9137 15.7313 13.8709 15.8722Q13.8282 16.0132 13.7718 16.1493Q13.7154 16.2853 13.646 16.4152Q13.5766 16.5451 13.4947 16.6676Q13.4129 16.79 13.3195 16.9039Q13.226 17.0177 13.1219 17.1219Q13.0177 17.226 12.9039 17.3195Q12.79 17.4129 12.6676 17.4947Q12.5451 17.5766 12.4152 17.646Q12.2853 17.7154 12.1493 17.7718Q12.0132 17.8282 11.8722 17.8709Q11.7313 17.9137 11.5868 17.9424Q11.4424 17.9711 11.2958 17.9856Q11.1492 18 11.002 18L2.99805 18Q2.85076 18 2.70419 17.9856Q2.55761 17.9711 2.41316 17.9424Q2.2687 17.9137 2.12776 17.8709Q1.98682 17.8281 1.85074 17.7718Q1.71467 17.7154 1.58478 17.646Q1.45488 17.5766 1.33242 17.4947Q1.20996 17.4129 1.09611 17.3195Q0.982254 17.226 0.878108 17.1219Q0.773962 17.0177 0.680525 16.9039Q0.587089 16.79 0.505262 16.6676Q0.423435 16.5451 0.354006 16.4152Q0.284576 16.2853 0.228213 16.1493Q0.171849 16.0132 0.129095 15.8722Q0.0863404 15.7313 0.0576066 15.5868Q0.0288728 15.4424 0.0144364 15.2958Q0 15.1492 0 15.002L0 2.99805Q0 2.85076 0.0144364 2.70419Q0.0288728 2.55761 0.0576066 2.41316Q0.0863404 2.2687 0.129095 2.12776Q0.171849 1.98682 0.228213 1.85074Q0.284576 1.71467 0.354006 1.58478Q0.423435 1.45488 0.505262 1.33242Q0.587089 1.20996 0.680525 1.09611Q0.773962 0.982254 0.878108 0.878108Q0.982254 0.773962 1.09611 0.680525Q1.20996 0.587089 1.33242 0.505262Q1.45488 0.423435 1.58478 0.354006Q1.71467 0.284576 1.85074 0.228213Q1.98682 0.171849 2.12776 0.129095Q2.2687 0.0863404 2.41316 0.0576066Q2.55761 0.0288728 2.70419 0.0144364Q2.85076 0 2.99805 0Z"
      id="path_1" />
    <path d="M7 1.61429e-06L7.99999 0L14 6L14 8L7 8L7 1.61429e-06Z" id="path_2" />
    <clipPath id="clip_1">
      <use xlink:href="#path_1" />
    </clipPath>
    <clipPath id="clip_2">
      <use xlink:href="#path_2" />
    </clipPath>
  </defs>
  <g id="File" fill-opacity="1">
    <path d="M-135 -1664L-135 -1664L-135 -1646L-149 -1646L-149 -1664L-135 -1664Z" id="File" fill="none" stroke="none" />
    <g id="Rectangle">
      <g clip-path="url(#clip_1)">
        <use xlink:href="#path_1" fill="none" stroke="#E5DFD5" stroke-width="4" />
      </g>
    </g>
    <g id="Rectangle">
      <g clip-path="url(#clip_2)">
        <use xlink:href="#path_2" fill="none" stroke="#E5DFD5" stroke-width="4" />
      </g>
    </g>
  </g>
</svg>