<?xml version="1.0" encoding="utf-8"?>
<svg width="20px" height="18px" viewBox="0 0 18 18" version="1.1" xmlns:xlink="http://www.w3.org/1999/xlink" xmlns="http://www.w3.org/2000/svg">
  <g id="Image" fill-opacity="1">
    <path d="M18 0L18 0L18 18L0 18L0 0L18 0Z" id="Image" fill="none" stroke="none" />
    <path d="M13.8462 2.07692L4.15385 2.07692C3.00679 2.07692 2.07692 3.00679 2.07692 4.15385L2.07692 11.1143L3.40892 10.1451C4.26934 9.51991 5.43685 9.5289 6.28754 10.1672L7.57246 11.1309L10.8512 8.32016C11.7843 7.52111 13.1676 7.54669 14.0705 8.37969L15.9231 10.0897L15.9231 4.15385C15.9231 3.00679 14.9932 2.07692 13.8462 2.07692M18 12.4588L18 4.15385C18 1.85974 16.1403 0 13.8462 0L4.15385 0C1.85974 0 0 1.85974 0 4.15385L0 13.8462C3.30118e-07 16.1403 1.85974 18 4.15385 18L13.8462 18C16.1403 18 18 16.1403 18 13.8462L18 12.4588ZM15.9231 12.9157L12.6623 9.90554C12.5333 9.78671 12.3358 9.78314 12.2026 9.89723L8.29108 13.2508L7.65831 13.7935L6.99231 13.2937L5.04 11.8302C4.91867 11.7398 4.75269 11.7386 4.63015 11.8274L2.07692 13.6814L2.07692 13.8462C2.07692 14.9932 3.00679 15.9231 4.15385 15.9231L13.8462 15.9231C14.9932 15.9231 15.9231 14.9932 15.9231 13.8462L15.9231 12.9157ZM8.30769 6.23077C8.30769 7.37782 7.37782 8.30769 6.23077 8.30769C5.08372 8.30769 4.15385 7.37782 4.15385 6.23077C4.15385 5.08372 5.08372 4.15385 6.23077 4.15385C7.37782 4.15385 8.30769 5.08372 8.30769 6.23077" id="Shape" fill="#E5DFD5" fill-rule="evenodd" stroke="none" />
  </g>
</svg>