<?xml version="1.0" encoding="utf-8"?>
<svg width="24px" height="20px" viewBox="0 0 24 20" version="1.1" xmlns:xlink="http://www.w3.org/1999/xlink" xmlns="http://www.w3.org/2000/svg">
  <g id="K" fill-opacity="1">
    <path d="M-751 -2016L-751 -2016L-751 -1996L-775 -1996L-775 -2016L-751 -2016Z" id="K" fill="none" stroke="none" />
    <path d="M12 0L17.6 0C19.8402 0 20.9603 0 21.816 0.435974Q22.3804 0.723593 22.8284 1.17157Q23.2764 1.61955 23.564 2.18404C24 3.03969 24 4.15979 24 6.4L24 13.6C24 15.8402 24 16.9603 23.564 17.816Q23.2764 18.3804 22.8284 18.8284Q22.3804 19.2764 21.816 19.564C20.9603 20 19.8402 20 17.6 20L6.4 20C4.15979 20 3.03969 20 2.18404 19.564Q1.61955 19.2764 1.17157 18.8284Q0.723594 18.3804 0.435974 17.816C0 16.9603 0 15.8402 0 13.6L0 6.4C0 4.15979 0 3.03969 0.435974 2.18404Q0.723594 1.61955 1.17157 1.17157Q1.61955 0.723594 2.18404 0.435974C3.03969 0 4.15979 0 6.4 0L12 0Z" id="Rectangle" fill="#FFFFFF" fill-opacity="0.050980393" stroke="none" />
    <g id="K" transform="translate(8 0)">
      <g transform="translate(0, 2.8945312)" id="K" fill="#E5E0D5">
        <path d="M1.5 11.5254C1.97461 11.5254 2.25586 11.2383 2.25586 10.7402L2.25586 8.70703L3.13477 7.77539L5.87695 11.127C6.11133 11.4199 6.31641 11.5313 6.61523 11.5313C7.02539 11.5313 7.3418 11.2148 7.3418 10.8047C7.3418 10.6055 7.25391 10.3945 7.04883 10.1426L4.25391 6.76172L6.79688 4.10742C6.97266 3.91992 7.04297 3.76172 7.04297 3.55664C7.04297 3.16992 6.74414 2.86523 6.33984 2.86523C6.09375 2.86523 5.91211 2.95898 5.70703 3.18164L2.30859 6.84961L2.25586 6.84961L2.25586 3.65625C2.25586 3.1582 1.97461 2.87109 1.5 2.87109C1.03125 2.87109 0.744141 3.1582 0.744141 3.65625L0.744141 10.7402C0.744141 11.2383 1.03125 11.5254 1.5 11.5254Z" />
      </g>
    </g>
  </g>
</svg>