<?xml version="1.0" encoding="utf-8"?>
<svg width="18px" height="18px" viewBox="0 0 18 18" version="1.1" xmlns:xlink="http://www.w3.org/1999/xlink" xmlns="http://www.w3.org/2000/svg">
  <defs>
    <path d="M0 0L10 0L10 16L0 16L0 0Z" id="path_1" />
  </defs>
  <g id="Logo">
    <path d="M9 0L9 0C11.9197 0 13.3795 0 14.3219 0.347674Q14.894 0.558746 15.4077 0.887528Q15.9213 1.21631 16.3525 1.64752Q16.7837 2.07874 17.1125 2.59235Q17.4413 3.10595 17.6523 3.67809C18 4.6205 18 6.08033 18 9L18 9C18 11.9197 18 13.3795 17.6523 14.3219Q17.4413 14.894 17.1125 15.4077Q16.7837 15.9213 16.3525 16.3525Q15.9213 16.7837 15.4077 17.1125Q14.894 17.4413 14.3219 17.6523C13.3795 18 11.9197 18 9 18L9 18C6.08033 18 4.6205 18 3.67809 17.6523Q3.10595 17.4413 2.59235 17.1125Q2.07874 16.7837 1.64752 16.3525Q1.21631 15.9213 0.887528 15.4077Q0.558746 14.894 0.347674 14.3219C0 13.3795 0 11.9197 0 9L0 9C0 6.08033 0 4.6205 0.347674 3.67809Q0.558746 3.10595 0.887528 2.59235Q1.21631 2.07874 1.64752 1.64752Q2.07874 1.21631 2.59235 0.887527Q3.10596 0.558745 3.67809 0.347673C4.6205 0 6.08033 0 9 0Z" id="Rectangle" fill="#FEB453" stroke="none" />
    <g id="C" clip-path="url(#clip_1)" transform="translate(4 -1)">
      <g transform="translate(0.828125, 2.8945312)" id="C" fill="#2E2D2B">
        <path d="M4.35938 11.5664C5.92969 11.5664 7.08398 10.9043 7.62891 9.76172C7.72266 9.56836 7.76953 9.39844 7.76953 9.2168C7.76953 8.87109 7.52344 8.625 7.16602 8.625C6.87891 8.625 6.70898 8.75391 6.56836 9.06445C6.17578 9.97852 5.38477 10.418 4.35352 10.418C2.80078 10.418 1.81641 9.16992 1.81641 7.19531C1.81641 5.23828 2.8125 3.97852 4.34766 3.97852C5.32031 3.97852 6.15234 4.48242 6.54492 5.42578C6.69141 5.76563 6.89648 5.91797 7.20703 5.91797C7.55859 5.91797 7.79297 5.68945 7.79297 5.33789C7.79297 5.17969 7.75195 5.00391 7.66992 4.83398C7.14258 3.58594 5.90039 2.83008 4.34766 2.83008C1.98633 2.83008 0.474609 4.51758 0.474609 7.19531C0.474609 9.89063 1.96875 11.5664 4.35938 11.5664Z" />
      </g>
    </g>
  </g>
</svg>