<?xml version="1.0" encoding="utf-8"?>
<svg width="18px" height="18px" viewBox="0 0 18 18" version="1.1" xmlns:xlink="http://www.w3.org/1999/xlink" xmlns="http://www.w3.org/2000/svg">
  <defs>
    <path d="M0 0L10 0L10 16L0 16L0 0Z" id="path_1" />
    <clipPath id="clip_1">
      <use xlink:href="#path_1" clip-rule="evenodd" fill-rule="evenodd" transform="translate(0, -0.83984375)" />
    </clipPath>
  </defs>
  <g id="Logo">
    <path d="M9 0L9 0C11.9197 0 13.3795 0 14.3219 0.347674Q14.894 0.558746 15.4077 0.887528Q15.9213 1.21631 16.3525 1.64752Q16.7837 2.07874 17.1125 2.59235Q17.4413 3.10595 17.6523 3.67809C18 4.6205 18 6.08033 18 9L18 9C18 11.9197 18 13.3795 17.6523 14.3219Q17.4413 14.894 17.1125 15.4077Q16.7837 15.9213 16.3525 16.3525Q15.9213 16.7837 15.4077 17.1125Q14.894 17.4413 14.3219 17.6523C13.3795 18 11.9197 18 9 18L9 18C6.08033 18 4.6205 18 3.67809 17.6523Q3.10595 17.4413 2.59235 17.1125Q2.07874 16.7837 1.64752 16.3525Q1.21631 15.9213 0.887528 15.4077Q0.558746 14.894 0.347674 14.3219C0 13.3795 0 11.9197 0 9L0 9C0 6.08033 0 4.6205 0.347674 3.67809Q0.558746 3.10595 0.887528 2.59235Q1.21631 2.07874 1.64752 1.64752Q2.07874 1.21631 2.59235 0.887527Q3.10596 0.558745 3.67809 0.347673C4.6205 0 6.08033 0 9 0Z" id="Rectangle" fill="#FEB453" stroke="none" />
    <g id="C" clip-path="url(#clip_1)" transform="translate(4 1.8398438)">
      <g transform="translate(0.5673828, 0)" id="Q" fill="#2E2D2B">
        <path d="M4.43555 11.5664C4.98047 11.5664 5.48438 11.4844 5.93555 11.3145L6.58008 12.2168C6.71484 12.4102 6.86719 12.498 7.07813 12.498C7.40625 12.498 7.64648 12.2754 7.64648 11.9648C7.64648 11.8125 7.61133 11.7129 7.51172 11.5723L6.92578 10.7578C7.86914 10.0254 8.39648 8.7832 8.39648 7.20117C8.39648 4.51758 6.86719 2.83008 4.43555 2.83008C1.99805 2.83008 0.474609 4.51758 0.474609 7.20117C0.474609 9.89648 1.99805 11.5664 4.43555 11.5664ZM4.43555 10.418C2.83008 10.418 1.81641 9.16992 1.81641 7.20117C1.81641 5.22656 2.83008 3.97852 4.43555 3.97852C6.04102 3.97852 7.04883 5.22656 7.04883 7.20117C7.04883 8.29102 6.7207 9.15234 6.14648 9.68555L5.58984 8.92383C5.45508 8.74219 5.32617 8.67188 5.11523 8.67188C4.80469 8.67188 4.57617 8.88867 4.57617 9.19922C4.57617 9.32227 4.61133 9.44531 4.71094 9.58008L5.22656 10.3008C4.98047 10.377 4.7168 10.418 4.43555 10.418Z" />
      </g>
    </g>
  </g>
</svg>